<?xml version="1.0" encoding="UTF-8" standalone="no"?>
<!-- Created with Inkscape (http://www.inkscape.org/) -->

<svg
   xmlns:dc="http://purl.org/dc/elements/1.1/"
   xmlns:cc="http://creativecommons.org/ns#"
   xmlns:rdf="http://www.w3.org/1999/02/22-rdf-syntax-ns#"
   xmlns:svg="http://www.w3.org/2000/svg"
   xmlns="http://www.w3.org/2000/svg"
   xmlns:sodipodi="http://sodipodi.sourceforge.net/DTD/sodipodi-0.dtd"
   xmlns:inkscape="http://www.inkscape.org/namespaces/inkscape"
   width="210mm"
   height="297mm"
   viewBox="0 0 210 297"
   version="1.1"
   id="svg1442"
   inkscape:version="0.92.4 (5da689c313, 2019-01-14)"
   sodipodi:docname="emoji3.svg">
  <defs
     id="defs1436" />
  <sodipodi:namedview
     id="base"
     pagecolor="#ffffff"
     bordercolor="#666666"
     borderopacity="1.0"
     inkscape:pageopacity="0.0"
     inkscape:pageshadow="2"
     inkscape:zoom="0.35"
     inkscape:cx="-64.285714"
     inkscape:cy="560"
     inkscape:document-units="mm"
     inkscape:current-layer="layer1"
     showgrid="false"
     inkscape:window-width="1920"
     inkscape:window-height="1017"
     inkscape:window-x="-8"
     inkscape:window-y="-8"
     inkscape:window-maximized="1" />
  <metadata
     id="metadata1439">
    <rdf:RDF>
      <cc:Work
         rdf:about="">
        <dc:format>image/svg+xml</dc:format>
        <dc:type
           rdf:resource="http://purl.org/dc/dcmitype/StillImage" />
        <dc:title></dc:title>
      </cc:Work>
    </rdf:RDF>
  </metadata>
  <g
     inkscape:label="Layer 1"
     inkscape:groupmode="layer"
     id="layer1">
    <path
       id="path1987"
       d="m 105.83334,78.680953 c -36.247915,0 -65.616672,29.368747 -65.616672,65.616667 0,36.24792 29.368757,65.61667 65.616672,65.61667 36.24791,0 65.61666,-29.36875 65.61666,-65.61667 0,-36.24792 -29.36875,-65.616667 -65.61666,-65.616667 z M 84.666675,123.13095 c 4.68312,0 8.46667,3.78355 8.46667,8.46667 0,4.68313 -3.78355,8.46667 -8.46667,8.46667 -4.68313,0 -8.46667,-3.78354 -8.46667,-8.46667 0,-4.68312 3.78354,-8.46667 8.46667,-8.46667 z m 46.566665,50.8 H 80.433345 c -5.60917,0 -5.60917,-8.46666 0,-8.46666 h 50.799995 c 5.60916,0 5.60916,8.46666 0,8.46666 z M 127,140.06429 c -4.68312,0 -8.46666,-3.78354 -8.46666,-8.46667 0,-4.68312 3.78354,-8.46667 8.46666,-8.46667 4.68313,0 8.46667,3.78355 8.46667,8.46667 0,4.68313 -3.78354,8.46667 -8.46667,8.46667 z"
       inkscape:connector-curvature="0"
       style="fill:#ffcc00;stroke-width:0.26458332;opacity:0.9" />
  </g>
</svg>
