<?xml version="1.0" encoding="UTF-8" standalone="no"?>
<!-- Created with Inkscape (http://www.inkscape.org/) -->

<svg
   xmlns:dc="http://purl.org/dc/elements/1.1/"
   xmlns:cc="http://creativecommons.org/ns#"
   xmlns:rdf="http://www.w3.org/1999/02/22-rdf-syntax-ns#"
   xmlns:svg="http://www.w3.org/2000/svg"
   xmlns="http://www.w3.org/2000/svg"
   xmlns:sodipodi="http://sodipodi.sourceforge.net/DTD/sodipodi-0.dtd"
   xmlns:inkscape="http://www.inkscape.org/namespaces/inkscape"
   width="210mm"
   height="297mm"
   viewBox="0 0 210 297"
   version="1.1"
   id="svg880"
   inkscape:version="0.92.4 (5da689c313, 2019-01-14)"
   sodipodi:docname="emoji2.svg">
  <defs
     id="defs874" />
  <sodipodi:namedview
     id="base"
     pagecolor="#ffffff"
     bordercolor="#666666"
     borderopacity="1.0"
     inkscape:pageopacity="0.0"
     inkscape:pageshadow="2"
     inkscape:zoom="0.35"
     inkscape:cx="-64.285714"
     inkscape:cy="560"
     inkscape:document-units="mm"
     inkscape:current-layer="layer1"
     showgrid="false"
     inkscape:window-width="1920"
     inkscape:window-height="1017"
     inkscape:window-x="-8"
     inkscape:window-y="-8"
     inkscape:window-maximized="1" />
  <metadata
     id="metadata877">
    <rdf:RDF>
      <cc:Work
         rdf:about="">
        <dc:format>image/svg+xml</dc:format>
        <dc:type
           rdf:resource="http://purl.org/dc/dcmitype/StillImage" />
        <dc:title></dc:title>
      </cc:Work>
    </rdf:RDF>
  </metadata>
  <g
     inkscape:label="Layer 1"
     inkscape:groupmode="layer"
     id="layer1">
    <path
       id="path1425"
       d="m 111.125,79.436904 c -36.247916,0 -65.616666,29.368756 -65.616666,65.616666 0,36.24792 29.36875,65.61667 65.616666,65.61667 36.24791,0 65.61666,-29.36875 65.61666,-65.61667 0,-36.24791 -29.36875,-65.616666 -65.61666,-65.616666 z m 21.16666,44.449996 c 4.68313,0 8.46667,3.78354 8.46667,8.46667 0,4.68312 -3.78354,8.46667 -8.46667,8.46667 -4.68312,0 -8.46666,-3.78355 -8.46666,-8.46667 0,-4.68313 3.78354,-8.46667 8.46666,-8.46667 z m -42.333326,0 c 4.68313,0 8.46667,3.78354 8.46667,8.46667 0,4.68312 -3.78354,8.46667 -8.46667,8.46667 -4.68312,0 -8.46667,-3.78355 -8.46667,-8.46667 0,-4.68313 3.78355,-8.46667 8.46667,-8.46667 z m 45.032076,57.73209 c -5.92666,-7.09084 -14.63145,-11.16542 -23.86541,-11.16542 -9.23396,0 -17.938746,4.07458 -23.865416,11.16542 -3.57187,4.31271 -10.08062,-1.11125 -6.50875,-5.42396 7.54063,-9.02229 18.62667,-14.20813 30.374166,-14.20813 11.7475,0 22.83354,5.18584 30.34771,14.23459 3.59833,4.28625 -2.91042,9.71021 -6.4823,5.3975 z"
       inkscape:connector-curvature="0"
       style="fill:#ff6600;stroke-width:0.26458332;opacity:0.9" />
  </g>
</svg>
