<?xml version="1.0" encoding="UTF-8" standalone="no"?>
<!-- Created with Inkscape (http://www.inkscape.org/) -->

<svg
   xmlns:dc="http://purl.org/dc/elements/1.1/"
   xmlns:cc="http://creativecommons.org/ns#"
   xmlns:rdf="http://www.w3.org/1999/02/22-rdf-syntax-ns#"
   xmlns:svg="http://www.w3.org/2000/svg"
   xmlns="http://www.w3.org/2000/svg"
   xmlns:sodipodi="http://sodipodi.sourceforge.net/DTD/sodipodi-0.dtd"
   xmlns:inkscape="http://www.inkscape.org/namespaces/inkscape"
   width="210mm"
   height="297mm"
   viewBox="0 0 210 297"
   version="1.1"
   id="svg8"
   inkscape:version="0.92.4 (5da689c313, 2019-01-14)"
   sodipodi:docname="palpite-box.svg">
  <defs
     id="defs2" />
  <sodipodi:namedview
     id="base"
     pagecolor="#ffffff"
     bordercolor="#666666"
     borderopacity="1.0"
     inkscape:pageopacity="0.0"
     inkscape:pageshadow="2"
     inkscape:zoom="0.35"
     inkscape:cx="-64.285714"
     inkscape:cy="560"
     inkscape:document-units="mm"
     inkscape:current-layer="layer1"
     showgrid="false"
     inkscape:window-width="1920"
     inkscape:window-height="1017"
     inkscape:window-x="-8"
     inkscape:window-y="-8"
     inkscape:window-maximized="1" />
  <metadata
     id="metadata5">
    <rdf:RDF>
      <cc:Work
         rdf:about="">
        <dc:format>image/svg+xml</dc:format>
        <dc:type
           rdf:resource="http://purl.org/dc/dcmitype/StillImage" />
        <dc:title></dc:title>
      </cc:Work>
    </rdf:RDF>
  </metadata>
  <g
     inkscape:label="Layer 1"
     inkscape:groupmode="layer"
     id="layer1">
    <g
       id="layer1-0"
       inkscape:label="Layer 1"
       transform="translate(-2.2678582,-55.940476)">
      <g
         style="fill:#d69e2e;fill-opacity:1"
         transform="translate(11.339286,-4.5357148)"
         inkscape:label="Layer 1"
         id="layer1-7">
        <g
           id="layer1-5"
           inkscape:label="Layer 1"
           transform="translate(-3.7797661,21.166667)"
           style="fill:#d69e2e;fill-opacity:1">
          <g
             style="fill:#d69e2e;fill-opacity:1"
             transform="translate(1.6118824,-13.426863)"
             inkscape:label="Layer 1"
             id="layer1-1">
            <path
               style="fill:#d69e2e;fill-opacity:1;stroke-width:0.26458332"
               clip-path="none"
               d="m 167.30031,78.803163 c -0.22479,-0.0065 -0.45238,0.0049 -0.68058,0.03462 l -66.17219,8.440311 24.26209,40.243026 c 1.00541,1.66687 3.01625,2.4603 4.89479,1.93114 l 52.36114,-14.94896 c 2.61939,-0.76729 3.88969,-3.6776 2.69906,-6.11177 L 171.03858,81.192682 c -0.71768,-1.435368 -2.16473,-2.344307 -3.73827,-2.389519 z m -66.85277,8.474935 -66.198542,-8.440311 c -1.82563,-0.211672 -3.572288,0.714473 -4.392496,2.354895 L 16.23046,108.39154 c -1.21708,2.43417 0.07982,5.34458 2.672705,6.08541 l 52.360628,14.94896 c 1.87855,0.52917 3.889374,-0.26426 4.894794,-1.93115 z m 0,16.404172 -16.986043,28.20448 c -2.30188,3.83645 -6.50875,6.2177 -10.980208,6.2177 -1.19063,0 -2.381453,-0.15885 -3.519164,-0.50281 L 32.714208,127.23018 v 47.09583 c 0,3.88937 2.64563,7.27605 6.402711,8.20209 l 57.203228,14.31385 c 2.69874,0.66146 5.529793,0.66146 8.202083,0 l 57.25594,-14.31385 c 3.75709,-0.9525 6.40271,-4.33917 6.40271,-8.20209 v -47.09583 l -36.24792,10.34511 c -1.13771,0.34394 -2.32853,0.50281 -3.51916,0.50281 -4.47145,0 -8.67792,-2.38136 -10.95334,-6.19135 z m -4.882393,38.27156 c 10.947863,0 19.818433,6.25841 19.818433,13.98519 0,7.72678 -8.87057,13.9852 -19.818433,13.9852 -3.90654,0 -7.53697,-0.81311 -10.60503,-2.1854 -2.07714,1.11007 -4.96438,2.1854 -8.45168,2.1854 -0.3049,0 -0.5717,-0.1574 -0.69557,-0.41962 -0.12386,-0.26222 -0.0665,-0.55911 0.14314,-0.76016 0.0286,-0.0262 2.1344,-2.12435 3.41117,-4.76405 -2.27723,-2.28131 -3.62097,-5.04331 -3.62097,-8.04137 0,-7.72678 8.87109,-13.98519 19.81894,-13.98519 z m 22.743323,12.22819 c 7.22234,2.08902 12.32018,7.09742 12.32018,12.94495 0,2.99806 -1.34375,5.7693 -3.62097,8.04189 1.27676,2.64843 3.38256,4.73733 3.41116,4.76353 0.20963,0.20977 0.267,0.50667 0.14314,0.76016 -0.11435,0.25347 -0.39067,0.41961 -0.69556,0.41961 -3.48731,0 -6.37454,-1.07481 -8.45168,-2.18488 -3.06806,1.38103 -6.69798,2.18488 -10.60452,2.18488 -8.21325,0 -15.264193,-3.5312 -18.265553,-8.5571 0.99092,0.0962 1.99144,0.1664 3.02048,0.1664 12.605763,0 22.867343,-7.52604 22.867343,-16.78244 0,-0.59436 -0.0382,-1.18012 -0.12402,-1.757 z"
               id="path3732"
               inkscape:connector-curvature="0" />
          </g>
        </g>
      </g>
    </g>
    <text
       xml:space="preserve"
       style="font-style:normal;font-weight:normal;font-size:44.52458954px;line-height:1.25;font-family:sans-serif;letter-spacing:0px;word-spacing:0px;fill:#d69e2e;fill-opacity:1;stroke:none;stroke-width:1.1131146"
       x="40.459751"
       y="140.7933"
       id="text831"
       transform="scale(0.7130891,1.4023493)"><tspan
         sodipodi:role="line"
         id="tspan829"
         x="40.459751"
         y="140.7933"
         style="fill:#d69e2e;fill-opacity:1;stroke-width:1.1131146">PalpiteBox</tspan></text>
  </g>
</svg>
