<?xml version="1.0" encoding="UTF-8" standalone="no"?>
<!-- Created with Inkscape (http://www.inkscape.org/) -->

<svg
   xmlns:dc="http://purl.org/dc/elements/1.1/"
   xmlns:cc="http://creativecommons.org/ns#"
   xmlns:rdf="http://www.w3.org/1999/02/22-rdf-syntax-ns#"
   xmlns:svg="http://www.w3.org/2000/svg"
   xmlns="http://www.w3.org/2000/svg"
   xmlns:sodipodi="http://sodipodi.sourceforge.net/DTD/sodipodi-0.dtd"
   xmlns:inkscape="http://www.inkscape.org/namespaces/inkscape"
   width="448px"
   height="448px"
   viewBox="0 0 448 448"
   version="1.1"
   id="SVGRoot"
   inkscape:version="0.92.4 (5da689c313, 2019-01-14)"
   sodipodi:docname="twitter.svg">
  <defs
     id="defs2486" />
  <sodipodi:namedview
     id="base"
     pagecolor="#ffffff"
     bordercolor="#666666"
     borderopacity="1.0"
     inkscape:pageopacity="0.0"
     inkscape:pageshadow="2"
     inkscape:zoom="1.1428571"
     inkscape:cx="224"
     inkscape:cy="224"
     inkscape:document-units="px"
     inkscape:current-layer="layer1"
     showgrid="false"
     inkscape:window-width="1920"
     inkscape:window-height="1017"
     inkscape:window-x="-8"
     inkscape:window-y="-8"
     inkscape:window-maximized="1" />
  <metadata
     id="metadata2489">
    <rdf:RDF>
      <cc:Work
         rdf:about="">
        <dc:format>image/svg+xml</dc:format>
        <dc:type
           rdf:resource="http://purl.org/dc/dcmitype/StillImage" />
        <dc:title></dc:title>
      </cc:Work>
    </rdf:RDF>
  </metadata>
  <g
     inkscape:label="Layer 1"
     inkscape:groupmode="layer"
     id="layer1">
    <g
       id="layer1-4"
       inkscape:label="Layer 1"
       transform="matrix(3.7795276,0,0,3.7795276,-180.5893,-243.85897)">
      <path
         style="fill:#d69e2e;fill-opacity:1;stroke-width:0.26458332"
         inkscape:connector-curvature="0"
         d="M 153.91191,64.620238 H 60.778574 c -7.011459,0 -12.7,5.688541 -12.7,12.7 v 93.133332 c 0,7.01146 5.688541,12.7 12.7,12.7 h 93.133336 c 7.01146,0 12.7,-5.68854 12.7,-12.7 V 77.320238 c 0,-7.011459 -5.68854,-12.7 -12.7,-12.7 z m -12.93812,42.015832 c 0.0529,0.74084 0.0529,1.50813 0.0529,2.24896 0,22.93938 -17.4625,49.37125 -49.371258,49.37125 -9.8425,0 -18.970625,-2.8575 -26.643542,-7.77875 1.402292,0.15875 2.751667,0.21167 4.180417,0.21167 8.122708,0 15.583958,-2.75167 21.537083,-7.40834 -7.62,-0.15875 -14.022916,-5.15937 -16.218958,-12.03854 2.672292,0.39688 5.08,0.39688 7.831667,-0.3175 -7.9375,-1.61396 -13.890625,-8.59896 -13.890625,-17.03916 v -0.21167 c 2.301875,1.29646 5.000625,2.09021 7.831666,2.19604 a 17.316185,17.316185 0 0 1 -7.725816,-14.44625 c 0,-3.227917 0.846667,-6.191251 2.354792,-8.757709 8.546041,10.530419 21.378333,17.409589 35.771664,18.150419 -2.46062,-11.773961 6.35001,-21.325419 16.93334,-21.325419 5.00063,0 9.49854,2.090208 12.67354,5.476875 3.91584,-0.740833 7.67292,-2.196042 11.00667,-4.180417 -1.29646,4.021667 -4.02167,7.408334 -7.62,9.551461 3.4925,-0.370419 6.87917,-1.349377 10.00125,-2.698752 -2.35479,3.466042 -5.31812,6.535202 -8.70479,8.995832 z"
         id="path1377" />
    </g>
  </g>
</svg>
