<?xml version="1.0" encoding="UTF-8" standalone="no"?>
<!-- Created with Inkscape (http://www.inkscape.org/) -->

<svg
   xmlns:dc="http://purl.org/dc/elements/1.1/"
   xmlns:cc="http://creativecommons.org/ns#"
   xmlns:rdf="http://www.w3.org/1999/02/22-rdf-syntax-ns#"
   xmlns:svg="http://www.w3.org/2000/svg"
   xmlns="http://www.w3.org/2000/svg"
   xmlns:sodipodi="http://sodipodi.sourceforge.net/DTD/sodipodi-0.dtd"
   xmlns:inkscape="http://www.inkscape.org/namespaces/inkscape"
   width="448px"
   height="448px"
   viewBox="0 0 448 448"
   version="1.1"
   id="SVGRoot"
   inkscape:version="0.92.4 (5da689c313, 2019-01-14)"
   sodipodi:docname="whatsapp.svg">
  <defs
     id="defs2486" />
  <sodipodi:namedview
     id="base"
     pagecolor="#ffffff"
     bordercolor="#666666"
     borderopacity="1.0"
     inkscape:pageopacity="0.0"
     inkscape:pageshadow="2"
     inkscape:zoom="1.1428571"
     inkscape:cx="224"
     inkscape:cy="224"
     inkscape:document-units="px"
     inkscape:current-layer="layer1"
     showgrid="false"
     inkscape:window-width="1920"
     inkscape:window-height="1017"
     inkscape:window-x="-8"
     inkscape:window-y="-8"
     inkscape:window-maximized="1" />
  <metadata
     id="metadata2489">
    <rdf:RDF>
      <cc:Work
         rdf:about="">
        <dc:format>image/svg+xml</dc:format>
        <dc:type
           rdf:resource="http://purl.org/dc/dcmitype/StillImage" />
        <dc:title></dc:title>
      </cc:Work>
    </rdf:RDF>
  </metadata>
  <g
     inkscape:label="Layer 1"
     inkscape:groupmode="layer"
     id="layer1">
    <g
       id="layer1-4"
       inkscape:label="Layer 1"
       transform="matrix(3.7795276,0,0,3.7795276,-161.3393,-283.85897)">
      <path
         style="fill:#d69e2e;fill-opacity:1;stroke-width:0.26458332"
         inkscape:connector-curvature="0"
         d="m 102.05357,99.227738 c -19.235206,0 -34.872081,15.636872 -34.898539,34.872082 0,6.58813 1.852083,13.0175 5.344583,18.54729 l 0.820209,1.32292 -3.518959,12.85875 13.202709,-3.46604 1.27,0.76729 c 5.344583,3.17499 11.482916,4.86833 17.753537,4.86833 h 0.0265 c 19.20875,0 35.26896,-15.63687 35.26896,-34.87208 0,-9.31333 -4.02166,-18.07104 -10.60979,-24.65917 -6.61458,-6.61458 -15.34583,-10.239372 -24.65917,-10.239372 z m 20.50521,49.847502 c -0.87312,2.46062 -5.05354,4.68312 -7.06437,4.97416 -3.33375,0.50271 -5.92667,0.23813 -12.56771,-2.61937 -10.503961,-4.55083 -17.383127,-15.13417 -17.912294,-15.82208 -0.529167,-0.68792 -4.28625,-5.68855 -4.28625,-10.84792 0,-5.15938 2.69875,-7.69938 3.677708,-8.75771 0.9525,-1.05833 2.090209,-1.32292 2.804584,-1.32292 0.687916,0 1.402291,0 2.010833,0.0265 0.635,0.0265 1.508125,-0.23812 2.354792,1.79917 0.873125,2.09021 2.963333,7.24958 3.227916,7.77875 0.264584,0.52917 0.449792,1.13771 0.07937,1.82563 -2.010833,4.02166 -4.153958,3.86291 -3.069166,5.715 4.048125,6.95854 8.09625,9.36625 14.261037,12.46187 1.05834,0.52917 1.66688,0.44979 2.27542,-0.26458 0.60854,-0.68792 2.61938,-3.06917 3.30729,-4.10104 0.68792,-1.05834 1.40229,-0.87313 2.35479,-0.52917 0.9525,0.34396 6.11188,2.88396 7.17021,3.41312 1.05834,0.52917 1.74625,0.79375 2.01084,1.21709 0.23812,0.50271 0.23812,2.61937 -0.635,5.05354 z M 148.62024,75.203571 H 55.486906 c -7.011458,0 -12.7,5.688542 -12.7,12.700001 V 181.0369 c 0,7.01146 5.688542,12.7 12.7,12.7 h 93.133334 c 7.01146,0 12.7,-5.68854 12.7,-12.7 V 87.903572 c 0,-7.011459 -5.68854,-12.700001 -12.7,-12.700001 z M 102.02711,176.06273 c -7.037912,0 -13.943537,-1.77271 -20.055412,-5.10646 l -22.251459,5.8473 5.953125,-21.74875 c -3.677708,-6.35 -5.609166,-13.57312 -5.609166,-20.98146 0.02646,-23.12458 18.838333,-41.936455 41.962912,-41.936455 11.21834,0 21.74875,4.365625 29.68625,12.303125 7.91105,7.9375 12.67355,18.46792 12.67355,29.68625 0,23.12458 -19.23521,41.93645 -42.3598,41.93645 z"
         id="path1939" />
    </g>
  </g>
</svg>
